<svg width="500" height="500" viewBox="0 0 500 500" fill="none" xmlns="http://www.w3.org/2000/svg">
<circle cx="250" cy="250" r="250" fill="#304DDB"/>
<g clip-path="url(#clip0_3221_2470)">
<path fill-rule="evenodd" clip-rule="evenodd" d="M243.475 184.838C263.648 164.172 263.648 130.666 243.475 110L150.13 205.626C129.957 226.293 129.957 259.798 150.13 280.465L243.475 184.838ZM150.334 389.251C130.161 368.585 130.161 335.079 150.334 314.413L349.87 110C370.043 130.666 370.043 164.172 349.87 184.838L150.334 389.251ZM256.516 390C236.343 369.334 236.343 335.828 256.516 315.162L349.861 219.535C370.034 240.202 370.034 273.707 349.861 294.374L256.516 390Z" fill="white"/>
</g>
<defs>
<clipPath id="clip0_3221_2470">
<rect width="230" height="280" fill="white" transform="translate(135 110)"/>
</clipPath>
</defs>
</svg>
